<svg width="24" height="24" viewBox="0 0 24 24" fill="none" xmlns="http://www.w3.org/2000/svg">
<path d="M8.5 14.25C8.5 16.17 10.08 17.75 12 17.75C13.92 17.75 15.5 16.17 15.5 14.25" stroke="url(#paint0_linear_129_23578)" stroke-width="1.5" stroke-miterlimit="10" stroke-linecap="round" stroke-linejoin="round"/>
<path d="M8.80994 2L5.18994 5.63" stroke="url(#paint1_linear_129_23578)" stroke-width="1.5" stroke-miterlimit="10" stroke-linecap="round" stroke-linejoin="round"/>
<path d="M15.1899 2L18.8099 5.63" stroke="url(#paint2_linear_129_23578)" stroke-width="1.5" stroke-miterlimit="10" stroke-linecap="round" stroke-linejoin="round"/>
<path d="M2 7.84961C2 5.99961 2.99 5.84961 4.22 5.84961H19.78C21.01 5.84961 22 5.99961 22 7.84961C22 9.99961 21.01 9.84961 19.78 9.84961H4.22C2.99 9.84961 2 9.99961 2 7.84961Z" stroke="url(#paint3_linear_129_23578)" stroke-width="1.5"/>
<path d="M3.5 10L4.91 18.64C5.23 20.58 6 22 8.86 22H14.89C18 22 18.46 20.64 18.82 18.76L20.5 10" stroke="url(#paint4_linear_129_23578)" stroke-width="1.5" stroke-linecap="round"/>
<defs>
<linearGradient id="paint0_linear_129_23578" x1="8.5" y1="16" x2="15.5" y2="16" gradientUnits="userSpaceOnUse">
<stop stop-color="#FF1E54"/>
<stop offset="1" stop-color="#FF5B83"/>
</linearGradient>
<linearGradient id="paint1_linear_129_23578" x1="5.18994" y1="3.815" x2="8.80994" y2="3.815" gradientUnits="userSpaceOnUse">
<stop stop-color="#FF1E54"/>
<stop offset="1" stop-color="#FF5B83"/>
</linearGradient>
<linearGradient id="paint2_linear_129_23578" x1="15.1899" y1="3.815" x2="18.8099" y2="3.815" gradientUnits="userSpaceOnUse">
<stop stop-color="#FF1E54"/>
<stop offset="1" stop-color="#FF5B83"/>
</linearGradient>
<linearGradient id="paint3_linear_129_23578" x1="2" y1="7.85073" x2="22" y2="7.85073" gradientUnits="userSpaceOnUse">
<stop stop-color="#FF1E54"/>
<stop offset="1" stop-color="#FF5B83"/>
</linearGradient>
<linearGradient id="paint4_linear_129_23578" x1="3.5" y1="16" x2="20.5" y2="16" gradientUnits="userSpaceOnUse">
<stop stop-color="#FF1E54"/>
<stop offset="1" stop-color="#FF5B83"/>
</linearGradient>
</defs>
</svg>
