<svg width="24" height="25" viewBox="0 0 24 25" fill="none" xmlns="http://www.w3.org/2000/svg">
<path d="M11.5437 22.2391C11.6524 22.4021 11.8354 22.5 12.0313 22.5C12.2271 22.5 12.4101 22.4021 12.5188 22.2391C13.9055 20.1591 15.9479 17.5903 17.3712 14.9778C18.5093 12.8889 19.0625 11.1073 19.0625 9.53125C19.0625 5.65422 15.9083 2.5 12.0313 2.5C8.15422 2.5 5 5.65422 5 9.53125C5 11.1073 5.55324 12.8889 6.69129 14.9778C8.11352 17.5883 10.1599 20.1634 11.5437 22.2391ZM12.0313 3.67188C15.2621 3.67188 17.8906 6.30039 17.8906 9.53125C17.8906 10.9064 17.3841 12.5046 16.3421 14.4171C15.1153 16.6691 13.3646 18.9534 12.0313 20.8738C10.6981 18.9537 8.94727 16.6692 7.72035 14.4171C6.6784 12.5046 6.17188 10.9064 6.17188 9.53125C6.17188 6.30039 8.80039 3.67188 12.0313 3.67188Z" fill="url(#paint0_linear_592_5529)"/>
<path d="M12.0313 13.0469C13.9698 13.0469 15.5469 11.4698 15.5469 9.53125C15.5469 7.59273 13.9698 6.01562 12.0313 6.01562C10.0927 6.01562 8.51562 7.59273 8.51562 9.53125C8.51562 11.4698 10.0927 13.0469 12.0313 13.0469ZM12.0313 7.1875C13.3236 7.1875 14.375 8.23891 14.375 9.53125C14.375 10.8236 13.3236 11.875 12.0313 11.875C10.7389 11.875 9.6875 10.8236 9.6875 9.53125C9.6875 8.23891 10.7389 7.1875 12.0313 7.1875Z" fill="url(#paint1_linear_592_5529)"/>
<defs>
<linearGradient id="paint0_linear_592_5529" x1="5" y1="12.5" x2="19.0625" y2="12.5" gradientUnits="userSpaceOnUse">
<stop stop-color="#FF1E54"/>
<stop offset="1" stop-color="#FF5B83"/>
</linearGradient>
<linearGradient id="paint1_linear_592_5529" x1="8.51562" y1="9.53125" x2="15.5469" y2="9.53125" gradientUnits="userSpaceOnUse">
<stop stop-color="#FF1E54"/>
<stop offset="1" stop-color="#FF5B83"/>
</linearGradient>
</defs>
</svg>
